<svg width="145" height="36" viewBox="0 0 145 36" fill="none" xmlns="http://www.w3.org/2000/svg">
<path d="M9.28125 0.875L15.2812 12.5L21.2812 0.875H30L20.2969 17.7969L30.2578 35H21.4688L15.2812 23.1641L9.11719 35H0.304688L10.2891 17.7969L0.5625 0.875H9.28125Z" fill="#1DD3B0"/>
<path d="M73.4766 0.875V35H65.8594L52.9688 12.9453V35H45.3281V0.875H52.9688L65.8828 22.9297V0.875H73.4766ZM77.6953 22.5781V22.0859C77.6953 20.2266 77.9609 18.5156 78.4922 16.9531C79.0234 15.375 79.8047 14.0078 80.8359 12.8516C81.8672 11.6953 83.1328 10.7969 84.6328 10.1562C86.1328 9.5 87.8516 9.17188 89.7891 9.17188C91.7578 9.17188 93.4922 9.5 94.9922 10.1562C96.5078 10.7969 97.7812 11.6953 98.8125 12.8516C99.8438 14.0078 100.625 15.375 101.156 16.9531C101.688 18.5156 101.953 20.2266 101.953 22.0859V22.5781C101.953 24.4219 101.688 26.1328 101.156 27.7109C100.625 29.2734 99.8438 30.6406 98.8125 31.8125C97.7812 32.9688 96.5156 33.8672 95.0156 34.5078C93.5156 35.1484 91.7891 35.4688 89.8359 35.4688C87.8984 35.4688 86.1719 35.1484 84.6562 34.5078C83.1406 33.8672 81.8672 32.9688 80.8359 31.8125C79.8047 30.6406 79.0234 29.2734 78.4922 27.7109C77.9609 26.1328 77.6953 24.4219 77.6953 22.5781ZM85.0312 22.0859V22.5781C85.0312 23.5781 85.1094 24.5156 85.2656 25.3906C85.4375 26.2656 85.7109 27.0312 86.0859 27.6875C86.4609 28.3438 86.9531 28.8594 87.5625 29.2344C88.1875 29.5938 88.9453 29.7734 89.8359 29.7734C90.7266 29.7734 91.4766 29.5938 92.0859 29.2344C92.6953 28.8594 93.1875 28.3438 93.5625 27.6875C93.9375 27.0312 94.2031 26.2656 94.3594 25.3906C94.5312 24.5156 94.6172 23.5781 94.6172 22.5781V22.0859C94.6172 21.1016 94.5312 20.1797 94.3594 19.3203C94.2031 18.4453 93.9375 17.6719 93.5625 17C93.1875 16.3281 92.6875 15.8047 92.0625 15.4297C91.4531 15.0547 90.6953 14.8672 89.7891 14.8672C88.9141 14.8672 88.1719 15.0547 87.5625 15.4297C86.9531 15.8047 86.4609 16.3281 86.0859 17C85.7109 17.6719 85.4375 18.4453 85.2656 19.3203C85.1094 20.1797 85.0312 21.1016 85.0312 22.0859ZM118.688 9.64062V14.7734H103.641V9.64062H118.688ZM107.086 3.35938H114.422V27.0547C114.422 27.7578 114.508 28.2969 114.68 28.6719C114.852 29.0469 115.133 29.3125 115.523 29.4688C115.914 29.6094 116.414 29.6797 117.023 29.6797C117.461 29.6797 117.836 29.6641 118.148 29.6328C118.461 29.6016 118.75 29.5625 119.016 29.5156V34.8125C118.391 35.0156 117.727 35.1719 117.023 35.2812C116.32 35.4062 115.555 35.4688 114.727 35.4688C113.148 35.4688 111.781 35.2109 110.625 34.6953C109.484 34.1797 108.609 33.3672 108 32.2578C107.391 31.1328 107.086 29.6719 107.086 27.875V3.35938ZM134.156 35.4688C132.141 35.4688 130.336 35.1484 128.742 34.5078C127.148 33.8672 125.797 32.9844 124.688 31.8594C123.594 30.7188 122.758 29.4062 122.18 27.9219C121.602 26.4375 121.312 24.8516 121.312 23.1641V22.2734C121.312 20.3828 121.578 18.6406 122.109 17.0469C122.641 15.4531 123.414 14.0703 124.43 12.8984C125.461 11.7109 126.727 10.7969 128.227 10.1562C129.727 9.5 131.438 9.17188 133.359 9.17188C135.156 9.17188 136.758 9.46875 138.164 10.0625C139.57 10.6406 140.758 11.4766 141.727 12.5703C142.695 13.6484 143.43 14.9531 143.93 16.4844C144.445 18 144.703 19.7031 144.703 21.5938V24.5938H124.266V19.8828H137.531V19.3203C137.531 18.4297 137.367 17.6484 137.039 16.9766C136.727 16.3047 136.258 15.7891 135.633 15.4297C135.023 15.0547 134.25 14.8672 133.312 14.8672C132.422 14.8672 131.68 15.0547 131.086 15.4297C130.492 15.8047 130.016 16.3359 129.656 17.0234C129.312 17.6953 129.062 18.4844 128.906 19.3906C128.75 20.2812 128.672 21.2422 128.672 22.2734V23.1641C128.672 24.1484 128.805 25.0469 129.07 25.8594C129.336 26.6719 129.727 27.3672 130.242 27.9453C130.758 28.5234 131.383 28.9766 132.117 29.3047C132.852 29.6328 133.688 29.7969 134.625 29.7969C135.781 29.7969 136.883 29.5781 137.93 29.1406C138.977 28.6875 139.883 27.9844 140.648 27.0312L144.07 30.9453C143.555 31.6953 142.828 32.4219 141.891 33.125C140.969 33.8125 139.859 34.375 138.562 34.8125C137.266 35.25 135.797 35.4688 134.156 35.4688Z" fill="white"/>
</svg>
